Format : MPEG-4
Format profile : Base Media
Codec ID : isom
File size : 500 MiB
Duration : 25mn 31s
Overall bit rate : 2 740 Kbps

Video
ID : 1
Format : AVC
Format/Info : Advanced Video Codec
Format profile : High@L3.1
Format settings, CABAC : Yes
Format settings, ReFrames : 4 frames
Codec ID : avc1
Codec ID/Info : Advanced Video Coding
Duration : 25mn 31s
Bit rate : 2 672 Kbps
Maximum bit rate : 4 226 Kbps
Width : 1 280 pixels
Height : 720 pixels
Display aspect ratio : 16:9
Frame rate mode : Constant
Frame rate : 29.970 fps
Color space : YUV
Chroma subsampling : 4:2:0
Bit depth : 8 bits
Scan type : Progressive
Bits/(Pixel*Frame) : 0.097
Stream size : 488 MiB (98%)

Audio
ID : 2
Format : AC-3
Format/Info : Audio Coding 3
Mode extension : CM (complete main)
Format settings, Endianness : Big
Codec ID : ac-3
Duration : 25mn 31s
Bit rate mode : Constant
Bit rate : 64.0 Kbps
Channel(s) : 2 channels
Channel positions : Front: L R
Sampling rate : 44.1 KHz
Bit depth : 16 bits
Compression mode : Lossy
Stream size : 11.7 MiB (2%)
Language : English

SCREENSHOT.....
 
http://www.pixsor.com/share-5162_503A89D9.html